#!OML:ASF H:\MichaelJackson\Top Level 1\Subject 1\Session 1\male.ASF
:FULLY-SPECIFIED
:DEGREES
468
root 4.772 17.2243 -13.7046 9.6728 6.65023 -2.66892
lowerback 2.74138 2.09794 -0.141996
upperback 5.67447 2.69615 3.49932
thorax 4.14772 1.2617 3.72412
lowerneck -12.5486 -5.38636 -1.80832
upperneck 45.0481 -7.82853 0.302763
head 19.6701 -3.20547 -0.994095
rclavicle -3.97569e-015 -3.18055e-015
rhumerus -16.264 39.7974 -87.8909
rradius 131.711
rwrist -25.6318
rhand -46.9936 -59.9878
rfingers 7.12502
rthumb -19.7012 -809.009
lclavicle -3.97569e-015 -3.18055e-015
lhumerus -70.1705 -10.843 96.7951
lradius 63.8604
lwrist 18.0778
lhand -16.5262 11.1373
lfingers 7.12502
lthumb 9.69253 40.8943
rfemur -21.4086 -4.23782 26.2248
rtibia 38.4346
rfoot -12.8627 1.61537
rtoes 14.0346
lfemur -37.4618 -7.15679 -14.0197
ltibia 60.0499
lfoot 3.02699 -11.2535
ltoes 34.2373
469
root 4.78819 17.2772 -13.699 9.83677 6.07127 -1.87751
lowerback 3.00241 2.12529 -0.665445
upperback 5.76811 2.74535 3.05718
thorax 4.09133 1.27438 3.54944
lowerneck -12.6655 -5.25414 -1.77066
upperneck 45.0876 -7.65893 0.348367
head 19.7297 -3.12754 -0.952525
rclavicle -1.63003e-014 -4.6118e-014
rhumerus -16.2608 40.1033 -88.0957
rradius 131.598
rwrist -25.6086
rhand -46.9759 -59.9831
rfingers 7.12502
rthumb -19.6841 -809.007
lclavicle -1.63003e-014 -4.6118e-014
lhumerus -69.9719 -10.9631 96.797
lradius 63.8228
lwrist 17.6378
lhand -16.3581 10.929
lfingers 7.12502
lthumb 9.85466 40.6784
rfemur -23.1996 -4.09259 25.3185
rtibia 41.0709
rfoot -10.9901 1.62996
rtoes 12.1258
lfemur -36.7367 -7.24749 -14.9464
ltibia 58.6448
lfoot 1.74668 -11.3293
ltoes 34.285
470
root 4.80632 17.3263 -13.6949 10.0412 5.43733 -1.06279
lowerback 3.22742 2.15756 -1.2006
upperback 5.85142 2.79867 2.59404
thorax 4.0454 1.28903 3.36112
lowerneck -12.8075 -5.11734 -1.7337
upperneck 45.0985 -7.47534 0.38124
head 19.7759 -3.04691 -0.914402
rclavicle -1.66979e-014 -4.05521e-014
rhumerus -16.2034 40.4043 -88.2774
rradius 131.503
rwrist -25.6653
rhand -46.9576 -60.0015
rfingers 7.12502
rthumb -19.6665 -809.027
lclavicle -1.66979e-014 -4.05521e-014
lhumerus -69.7629 -11.0596 96.7485
lradius 63.785
lwrist 17.2225
lhand -15.9407 10.6326
lfingers 7.12502
lthumb 10.2574 40.3625
rfemur -25.3489 -4.06158 24.3786
rtibia 44.0678
rfoot -8.60488 1.85579
rtoes 11.3431
lfemur -36.0226 -7.34831 -15.9281
ltibia 57.1349
lfoot 0.356886 -11.3172
ltoes 34.2206
471
root 4.82566 17.3706 -13.691 10.2726 4.76226 -0.189516
lowerback 3.42545 2.1938 -1.79273
upperback 5.91957 2.85536 2.10573
thorax 3.99806 1.30376 3.17957
lowerneck -12.9797 -4.97976 -1.69026
upperneck 45.0826 -7.28442 0.397203
head 19.8107 -2.96522 -0.884561
rclavicle -1.31198e-014 -1.59028e-014
rhumerus -16.1216 40.6991 -88.4475
rradius 131.444
rwrist -25.7722
rhand -46.9503 -60.0147
rfingers 7.12502
rthumb -19.6595 -809.041
lclavicle -1.31198e-014 -1.59028e-014
lhumerus -69.5684 -11.1427 96.6534
lradius 63.7695
lwrist 16.8958
lhand -15.2574 10.2242
lfingers 7.12502
lthumb 10.9165 39.9204
rfemur -27.8106 -4.1278 23.3709
rtibia 47.3461
rfoot -5.63441 2.22403
rtoes 12.2142
lfemur -35.3019 -7.45753 -17.0034
ltibia 55.5138
lfoot -1.0347 -11.2605
ltoes 34.0212
472
root 4.84543 17.4098 -13.6858 10.5076 4.05796 0.760321
lowerback 3.58789 2.24052 -2.4723
upperback 5.98165 2.92408 1.59556
thorax 3.96177 1.3213 3.02571
lowerneck -13.1678 -4.85401 -1.64353
upperneck 45.0224 -7.10883 0.407525
head 19.8193 -2.89072 -0.86032
rclavicle 3.04141e-014 7.95139e-016
rhumerus -16.032 40.9683 -88.597
rradius 131.428
rwrist -25.8751
rhand -46.9499 -59.9736
rfingers 7.12502
rthumb -19.6591 -809
lclavicle 3.04141e-014 7.95139e-016
lhumerus -69.4008 -11.2444 96.5306
lradius 63.7942
lwrist 16.7033
lhand -14.3238 9.75075
lfingers 7.12502
lthumb 11.8168 39.3974
rfemur -30.508 -4.26798 22.2825
rtibia 50.8014
rfoot -2.10973 2.6161
rtoes 15.1538
lfemur -34.5428 -7.55292 -18.1945
ltibia 53.7708
lfoot -2.31896 -11.2067
ltoes 33.7602
473
root 4.86497 17.4431 -13.6778 10.7171 3.33751 1.79125
lowerback 3.72431 2.30025 -3.25257
upperback 6.04001 3.0082 1.06934
thorax 3.93256 1.34266 2.91217
lowerneck -13.3464 -4.74834 -1.60507
upperneck 44.9021 -6.96385 0.428146
head 19.7858 -2.82978 -0.833544
rclavicle -3.97569e-016 1.27222e-014
rhumerus -15.9565 41.2003 -88.7287
rradius 131.464
rwrist -25.944
rhand -46.9437 -59.8805
rfingers 7.12502
rthumb -19.6532 -808.907
lclavicle -3.97569e-016 1.27222e-014
lhumerus -69.2776 -11.3795 96.3966
lradius 63.8661
lwrist 16.6691
lhand -13.167 9.3331
lfingers 7.12502
lthumb 12.9322 38.9124
rfemur -33.3397 -4.47234 21.1187
rtibia 54.3183
rfoot 1.79824 2.92189
rtoes 19.9494
lfemur -33.7043 -7.60397 -19.5094
ltibia 51.896
lfoot -3.37723 -11.1965
ltoes 33.508
474
root 4.88393 17.4693 -13.6659 10.8713 2.61366 2.87987
lowerback 3.84306 2.3748 -4.11865
upperback 6.09695 3.1098 0.543851
thorax 3.90776 1.36906 2.84708
lowerneck -13.5193 -4.66345 -1.56938
upperneck 44.7399 -6.84713 0.445439
head 19.7226 -2.78152 -0.812125
rclavicle 1.68967e-014 -7.55382e-015
rhumerus -15.9074 41.3916 -88.8358
rradius 131.546
rwrist -25.9716
rhand -46.9587 -59.7454
rfingers 7.12502
rthumb -19.6676 -808.771
lclavicle 1.68967e-014 -7.55382e-015
lhumerus -69.2062 -11.5535 96.2778
lradius 63.9818
lwrist 16.7897
lhand -11.8455 8.95469
lfingers 7.12502
lthumb 14.2058 38.4489
rfemur -36.1905 -4.7185 19.9107
rtibia 57.782
rfoot 5.69454 3.11042
rtoes 25.4711
lfemur -32.7494 -7.5687 -20.9274
ltibia 49.889
lfoot -4.09492 -11.2661
ltoes 33.248
475
root 4.90249 17.488 -13.6487 10.9443 1.88447 3.97352
lowerback 3.94225 2.46801 -5.01277
upperback 6.15762 3.23474 0.0329909
thorax 3.89485 1.40517 2.8121
lowerneck -13.6767 -4.59821 -1.54047
upperneck 44.5449 -6.75796 0.464125
head 19.6342 -2.74554 -0.792845
rclavicle -9.93923e-015 1.59028e-014
rhumerus -15.8889 41.5392 -88.9238
rradius 131.658
rwrist -25.9484
rhand -46.987 -59.5555
rfingers 7.12502
rthumb -19.6948 -808.578
lclavicle -9.93923e-015 1.59028e-014
lhumerus -69.1905 -11.764 96.1851
lradius 64.1313
lwrist 17.0395
lhand -10.4207 8.68934
lfingers 7.12502
lthumb 15.5785 38.0819
rfemur -38.948 -4.97324 18.7164
rtibia 61.0921
rfoot 9.1428 3.25705
rtoes 30.6776
lfemur -31.6569 -7.39255 -22.3986
ltibia 47.772
lfoot -4.37564 -11.429
ltoes 33.0162
476
root 4.92065 17.4981 -13.6264 10.9302 1.18715 5.01314
lowerback 4.02818 2.5682 -5.86421
upperback 6.21711 3.36779 -0.444424
thorax 3.88804 1.44603 2.78667
lowerneck -13.811 -4.54698 -1.51928
upperneck 44.3361 -6.68682 0.481549
head 19.5313 -2.71829 -0.775187
rclavicle 1.37161e-014 1.35174e-014
rhumerus -15.8986 41.646 -88.9994
rradius 131.778
rwrist -25.8758
rhand -47.01 -59.3671
rfingers 7.12502
rthumb -19.7169 -808.387
lclavicle 1.37161e-014 1.35174e-014
lhumerus -69.22 -11.9972 96.1247
lradius 64.2876
lwrist 17.3768
lhand -8.9545 8.53275
lfingers 7.12502
lthumb 16.9902 37.8097
rfemur -41.5325 -5.22709 17.6042
rtibia 64.1699
rfoot 11.8342 3.50172
rtoes 34.9793
lfemur -30.4414 -7.04909 -23.8559
ltibia 45.5904
lfoot -4.22496 -11.6908
ltoes 33.039
477
root 4.93875 17.4981 -13.5989 10.8302 0.543112 5.93519
lowerback 4.10066 2.66588 -6.59926
upperback 6.26885 3.49701 -0.870958
thorax 3.88343 1.4886 2.74802
lowerneck -13.9072 -4.50266 -1.50615
upperneck 44.1336 -6.62218 0.494862
head 19.4229 -2.69556 -0.758183
rclavicle -5.56597e-015 9.14409e-015
rhumerus -15.9292 41.7264 -89.0678
rradius 131.882
rwrist -25.7761
rhand -47.0416 -59.2151
rfingers 7.12502
rthumb -19.7472 -808.232
lclavicle -5.56597e-015 9.14409e-015
lhumerus -69.2781 -12.2334 96.0999
lradius 64.4106
lwrist 17.7509
lhand -7.51759 8.47124
lfingers 7.12502
lthumb 18.373 37.6236
rfemur -43.8801 -5.46346 16.6392
rtibia 66.9588
rfoot 13.5838 3.95537
rtoes 37.9942
lfemur -29.1226 -6.52102 -25.2274
ltibia 43.4156
lfoot -3.82213 -12.0286
ltoes 33.305
